<?xml version="1.0" standalone="no"?>
<!DOCTYPE svg PUBLIC "-//W3C//DTD SVG 20010904//EN"
 "http://www.w3.org/TR/2001/REC-SVG-20010904/DTD/svg10.dtd">
<svg version="1.0" xmlns="http://www.w3.org/2000/svg"
 width="700.000000pt" height="700.000000pt" viewBox="0 0 700.000000 700.000000"
 preserveAspectRatio="xMidYMid meet">
<metadata>
Created by potrace 1.11, written by Peter Selinger 2001-2013
</metadata>
<g transform="translate(0.000000,700.000000) scale(0.100000,-0.100000)"
fill="#000000" stroke="none">
<path d="M347 6813 c-3 -7 -2 -6620 2 -6633 0 -3 1417 -5 3149 -5 l3147 0 3
3323 2 3322 -3149 0 c-1733 0 -3152 -3 -3154 -7z m6004 -310 c1 -5 2 -1361 3
-3015 1 -2000 -2 -3008 -9 -3009 -5 -1 -1287 -2 -2847 -3 -1886 -1 -2838 2
-2839 9 -4 26 -5 6011 -2 6018 2 4 1284 7 2849 7 1564 0 2845 -3 2845 -7z"/>
<path d="M1462 5333 l3 -87 2015 0 c1108 -1 2022 0 2030 2 13 3 16 19 15 85
l0 82 -2033 3 -2033 2 3 -87z"/>
<path d="M1502 4252 l-43 -3 3 -82 3 -82 2030 0 2030 0 0 83 c1 50 -3 82 -10
83 -37 2 -3979 3 -4013 1z"/>
<path d="M1462 3001 l3 -86 2030 0 2030 0 0 85 0 85 -2033 1 -2033 0 3 -85z"/>
<path d="M1461 1835 c-2 -76 0 -85 16 -86 10 0 925 -1 2033 -1 l2015 0 0 83 0
84 -2031 3 -2031 2 -2 -85z"/>
</g>
</svg>
